# xmcd
#
# Track frame offsets:
#	150
#	19572
#	41762
#	71120
#	92287
#	106580
#	128480
#	149857
#	171617
#	189257
#	207187
#	221775
#
# Disc length: 3213 seconds
# Revision: 4
# Processed by: cddbd v1.5.2PL0 Copyright (c) Steve Scherf et al.
# Submitted via: dBpowerAMP V12.0
#
DISCID=ac0c8b0c
DTITLE=Keb' Mo' - Suitcase
DYEAR=2006
DGENRE=Blues
TTITLE0=Your Love
TTITLE1=The Itch
TTITLE2=Eileen
TTITLE3=Remain Silent
TTITLE4=Still There for Me
TTITLE5=Rita
TTITLE6=I'm a Hero
TTITLE7=Suitcase
TTITLE8=Whole 'Nutha Thang
TTITLE9=I See Love
TTITLE10=I'll Be Your Water
TTITLE11=Life Is Beautiful
EXTD=
EXTT0=
EXTT1=
EXTT2=
EXTT3=
EXTT4=
EXTT5=
EXTT6=
EXTT7=
EXTT8=
EXTT9=
EXTT10=
EXTT11=
PLAYORDER=
